<?xml version="1.0" encoding="UTF-8" standalone="no"?>
<!DOCTYPE svg PUBLIC "-//W3C//DTD SVG 1.1//EN" "http://www.w3.org/Graphics/SVG/1.1/DTD/svg11.dtd">
<svg width="100%" height="100%" viewBox="0 0 64 64" version="1.1" xmlns="http://www.w3.org/2000/svg" xmlns:xlink="http://www.w3.org/1999/xlink" xml:space="preserve" xmlns:serif="http://www.serif.com/" style="fill-rule:evenodd;clip-rule:evenodd;stroke-linejoin:round;stroke-miterlimit:2;">
    <g>
        <path d="M54.538,6.056L9.513,6.056C7.606,6.056 6.05,7.613 6.05,9.519L6.05,54.544C6.05,56.45 7.606,58.006 9.513,58.006L54.537,58.006C56.444,58.006 58,56.45 58,54.544L58,9.519C58,7.613 56.444,6.056 54.537,6.056L54.538,6.056ZM54.006,54.012L10.044,54.012L10.044,10.05L54,10.05L54,54.013L54.006,54.012Z" style="fill:white;fill-rule:nonzero;"/>
        <path d="M12.044,52.013L30.025,52.013L30.025,12.05L12.044,12.05L12.044,52.013ZM21.712,26.263L25.706,33.45L23.037,33.45L23.037,38.25L20.375,38.25L20.375,33.45L17.713,33.45L21.712,26.263ZM52.006,12.05L32.025,12.05L32.025,52.013L52.006,52.013L52.006,12.05ZM41.925,39.394L37.931,32.206L40.6,32.206L40.6,27.406L43.263,27.406L43.263,32.206L45.925,32.206L41.925,39.394Z" style="fill:white;fill-rule:nonzero;"/>
    </g>
</svg>
