<?xml version="1.0" encoding="UTF-8" standalone="no"?>
<!DOCTYPE svg PUBLIC "-//W3C//DTD SVG 1.1//EN" "http://www.w3.org/Graphics/SVG/1.1/DTD/svg11.dtd">
<svg width="100%" height="100%" viewBox="0 0 64 64" version="1.1" xmlns="http://www.w3.org/2000/svg" xmlns:xlink="http://www.w3.org/1999/xlink" xml:space="preserve" xmlns:serif="http://www.serif.com/" style="fill-rule:evenodd;clip-rule:evenodd;stroke-linejoin:round;stroke-miterlimit:2;">
    <path id="icon-bag" d="M52.181,14.801L46.499,14.801C45.669,12.437 44.44,10.092 42.626,8.173C39.902,5.295 36.324,3.838 31.993,3.838C27.662,3.838 24.08,5.295 21.346,8.173C19.522,10.088 18.286,12.437 17.445,14.801L11.78,14.801C7.47,14.801 3.899,18.323 3.899,22.633L3.899,42.31C3.899,43.388 4.778,44.264 5.856,44.264C6.935,44.264 7.814,43.388 7.814,42.31L7.814,22.633C7.814,20.476 9.627,18.715 11.78,18.715L16.378,18.715C15.922,20.991 15.768,23.05 15.723,24.471C14.921,25.066 14.403,26.019 14.403,27.09C14.403,28.89 15.863,30.35 17.659,30.35C19.459,30.35 20.919,28.89 20.919,27.09C20.919,26.033 20.415,25.094 19.634,24.499C19.672,23.466 19.774,22.055 20.033,20.476C20.124,19.927 20.236,19.331 20.379,18.715L43.551,18.715C44.051,20.956 44.216,23.06 44.261,24.471C43.46,25.063 42.941,26.015 42.941,27.09C42.941,28.89 44.402,30.346 46.201,30.346C48.001,30.346 49.461,28.886 49.461,27.09C49.461,26.036 48.96,25.101 48.183,24.506C48.144,23.078 47.997,21.005 47.549,18.715L52.181,18.715C54.338,18.715 56.005,20.476 56.005,22.633L56.005,52.222C56.005,54.375 54.338,56.059 52.181,56.059L11.781,56.059C9.624,56.059 7.87,54.34 7.87,52.198C7.87,51.119 6.994,50.268 5.916,50.268C4.837,50.268 3.962,51.13 3.962,52.208C3.962,56.508 7.47,59.977 11.781,59.977L52.181,59.977C56.491,59.977 59.919,56.532 59.919,52.226L59.919,22.633C59.919,18.323 56.495,14.801 52.181,14.801ZM21.651,14.801C22.274,13.379 23.096,12.007 24.178,10.865C26.174,8.768 28.73,7.749 31.993,7.749C35.249,7.749 37.795,8.765 39.78,10.855C40.858,11.993 41.681,13.358 42.308,14.801L21.651,14.801Z" style="fill:rgb(102,102,102);fill-rule:nonzero;"/>
</svg>
