<?xml version="1.0" encoding="UTF-8" standalone="no"?>
<!DOCTYPE svg PUBLIC "-//W3C//DTD SVG 1.1//EN" "http://www.w3.org/Graphics/SVG/1.1/DTD/svg11.dtd">
<svg width="100%" height="100%" viewBox="0 0 64 64" version="1.1" xmlns="http://www.w3.org/2000/svg" xmlns:xlink="http://www.w3.org/1999/xlink" xml:space="preserve" xmlns:serif="http://www.serif.com/" style="fill-rule:evenodd;clip-rule:evenodd;stroke-linejoin:round;stroke-miterlimit:2;">
    <g id="icon-info" transform="matrix(0.714286,0,0,0.714286,-126.714,-119.357)">
        <g transform="matrix(1,0,0,1,171,160.7)">
            <path d="M86.4,51.2C86.4,31.76 70.64,16 51.2,16C31.76,16 16,31.76 16,51.2C16,70.64 31.76,86.4 51.2,86.4C70.64,86.4 86.4,70.64 86.4,51.2ZM6.4,51.2C6.4,26.458 26.458,6.4 51.2,6.4C75.942,6.4 96,26.458 96,51.2C96,75.942 75.942,96 51.2,96C26.458,96 6.4,75.942 6.4,51.2Z" style="fill:rgb(66,117,179);fill-rule:nonzero;"/>
        </g>
        <g transform="matrix(1,0,0,1,171,160.7)">
            <path d="M44.8,31.999C44.8,28.465 47.641,25.6 51.2,25.6C54.735,25.6 57.6,28.44 57.6,31.999L57.6,51.201C57.6,54.735 54.759,57.6 51.2,57.6C47.665,57.6 44.8,54.76 44.8,51.201L44.8,31.999ZM44.8,70.4C44.8,66.865 47.641,64 51.2,64C54.735,64 57.6,66.841 57.6,70.4C57.6,73.935 54.759,76.8 51.2,76.8C47.665,76.8 44.8,73.959 44.8,70.4Z" style="fill:rgb(66,117,179);fill-rule:nonzero;"/>
        </g>
    </g>
</svg>
