<?xml version="1.0" encoding="UTF-8" standalone="no"?>
<!DOCTYPE svg PUBLIC "-//W3C//DTD SVG 1.1//EN" "http://www.w3.org/Graphics/SVG/1.1/DTD/svg11.dtd">
<svg width="100%" height="100%" viewBox="0 0 64 64" version="1.1" xmlns="http://www.w3.org/2000/svg" xmlns:xlink="http://www.w3.org/1999/xlink" xml:space="preserve" xmlns:serif="http://www.serif.com/" style="fill-rule:evenodd;clip-rule:evenodd;stroke-linejoin:round;stroke-miterlimit:2;">
    <path id="icon-house" d="M61.689,28.622L46.222,22.578L46.222,12.444L39.111,12.444L39.111,19.911L20.8,12.8C19.556,12.267 18.133,12.444 17.244,13.333L1.244,27.556C-0.178,28.8 -0.356,31.111 0.889,32.533C1.6,33.422 2.489,33.778 3.556,33.778L5.333,33.778L5.333,58.667L16,58.667L16,37.333L26.667,37.333L26.667,58.667L58.667,58.667L58.667,35.556L60.444,35.556C61.867,35.556 63.289,34.667 63.822,33.244C64.533,31.467 63.644,29.333 61.689,28.622ZM51.556,37.333L51.556,42.667L44.444,42.667L44.444,37.333L51.556,37.333ZM33.778,37.333L40.889,37.333L40.889,42.667L33.778,42.667L33.778,37.333ZM33.778,51.556L33.778,46.222L40.889,46.222L40.889,51.556L33.778,51.556ZM51.556,51.556L44.444,51.556L44.444,46.222L51.556,46.222L51.556,51.556Z" style="fill:white;fill-rule:nonzero;"/>
</svg>
