<?xml version="1.0" encoding="UTF-8" standalone="no"?>
<!DOCTYPE svg PUBLIC "-//W3C//DTD SVG 1.1//EN" "http://www.w3.org/Graphics/SVG/1.1/DTD/svg11.dtd">
<svg width="100%" height="100%" viewBox="0 0 64 64" version="1.1" xmlns="http://www.w3.org/2000/svg" xmlns:xlink="http://www.w3.org/1999/xlink" xml:space="preserve" xmlns:serif="http://www.serif.com/" style="fill-rule:evenodd;clip-rule:evenodd;stroke-linejoin:round;stroke-miterlimit:2;">
    <path id="icon-factory" d="M10.667,48L10.667,53.333L21.333,53.333L21.333,48L10.667,48M10.667,37.333L10.667,42.667L37.333,42.667L37.333,37.333L10.667,37.333M26.667,48L26.667,53.333L37.333,53.333L37.333,48L26.667,48M42.667,37.333L42.667,42.667L53.333,42.667L53.333,37.333L42.667,37.333M42.667,48L42.667,53.333L53.333,53.333L53.333,48L42.667,48M5.333,58.667L5.333,21.333L18.667,32L18.667,21.333L32,32L32,21.333L45.333,32L48,5.333L56,5.333L58.667,32L58.667,58.667L5.333,58.667Z" style="fill:white;fill-rule:nonzero;"/>
</svg>
