<?xml version="1.0" encoding="UTF-8" standalone="no"?>
<!DOCTYPE svg PUBLIC "-//W3C//DTD SVG 1.1//EN" "http://www.w3.org/Graphics/SVG/1.1/DTD/svg11.dtd">
<svg width="100%" height="100%" viewBox="0 0 64 64" version="1.1" xmlns="http://www.w3.org/2000/svg" xmlns:xlink="http://www.w3.org/1999/xlink" xml:space="preserve" xmlns:serif="http://www.serif.com/" style="fill-rule:evenodd;clip-rule:evenodd;stroke-linejoin:round;stroke-miterlimit:2;">
    <path d="M60,61.5L60,64L4,64L4,61.5C4,60.672 4.672,60 5.5,60L8,60L8,15C8,13.343 9.343,12 11,12L22,12L22,3C22,1.343 23.343,0 25,0L39,0C40.657,0 42,1.343 42,3L42,12L53,12C54.657,12 56,13.343 56,15L56,60L58.5,60C59.328,60 60,60.672 60,61.5ZM42.5,24L37.5,24C36.672,24 36,24.672 36,25.5L36,30.5C36,31.328 36.672,32 37.5,32L42.5,32C43.328,32 44,31.328 44,30.5L44,25.5C44,24.672 43.328,24 42.5,24ZM21.5,32L26.5,32C27.328,32 28,31.328 28,30.5L28,25.5C28,24.672 27.328,24 26.5,24L21.5,24C20.672,24 20,24.672 20,25.5L20,30.5C20,31.328 20.672,32 21.5,32ZM34.5,48L29.5,48C28.672,48 28,48.672 28,49.5L28,60L36,60L36,49.5C36,48.672 35.328,48 34.5,48ZM42.5,36L37.5,36C36.672,36 36,36.672 36,37.5L36,42.5C36,43.328 36.672,44 37.5,44L42.5,44C43.328,44 44,43.328 44,42.5L44,37.5C44,36.672 43.328,36 42.5,36ZM28,37.5C28,36.672 27.328,36 26.5,36L21.5,36C20.672,36 20,36.672 20,37.5L20,42.5C20,43.328 20.672,44 21.5,44L26.5,44C27.328,44 28,43.328 28,42.5L28,37.5ZM26.75,12L30,12L30,15.25C30,15.661 30.339,16 30.75,16L33.25,16C33.661,16 34,15.661 34,15.25L34,12L37.25,12C37.661,12 38,11.661 38,11.25L38,8.75C38,8.339 37.661,8 37.25,8L34,8L34,4.75C34,4.339 33.661,4 33.25,4L30.75,4C30.339,4 30,4.339 30,4.75L30,8L26.75,8C26.339,8 26,8.339 26,8.75L26,11.25C26,11.661 26.339,12 26.75,12Z" style="fill:white;fill-rule:nonzero;"/>
</svg>
