<?xml version="1.0" encoding="UTF-8" standalone="no"?>
<!DOCTYPE svg PUBLIC "-//W3C//DTD SVG 1.1//EN" "http://www.w3.org/Graphics/SVG/1.1/DTD/svg11.dtd">
<svg width="100%" height="100%" viewBox="0 0 64 64" version="1.1" xmlns="http://www.w3.org/2000/svg" xmlns:xlink="http://www.w3.org/1999/xlink" xml:space="preserve" xmlns:serif="http://www.serif.com/" style="fill-rule:evenodd;clip-rule:evenodd;stroke-linejoin:round;stroke-miterlimit:2;">
    <g id="icon-work">
        <path d="M6,56C4.903,56 4,55.097 4,54C4,52.903 4.903,52 6,52L58,52C59.097,52 60,52.903 60,54C60,55.097 59.097,56 58,56L6,56Z" style="fill:white;fill-rule:nonzero;"/>
        <path d="M36,52L36,14C36,12.903 35.097,12 34,12L14,12C12.903,12 12,12.903 12,14L12,52L36,52ZM38,56L10,56C8.903,56 8,55.097 8,54L8,14C8,10.708 10.708,8 14,8L34,8C37.292,8 40,10.708 40,14L40,54C40,55.097 39.097,56 38,56Z" style="fill:white;fill-rule:nonzero;"/>
        <path d="M52,52L52,24C52,22.903 51.097,22 50,22L40,22L40,52L52,52ZM54,56L38,56C36.903,56 36,55.097 36,54L36,20C36,18.903 36.903,18 38,18L50,18C53.292,18 56,20.708 56,24L56,54C56,55.097 55.097,56 54,56ZM18,22C16.903,22 16,21.097 16,20C16,18.903 16.903,18 18,18L30,18C31.097,18 32,18.903 32,20C32,21.097 31.097,22 30,22L18,22ZM18,32C16.903,32 16,31.097 16,30C16,28.903 16.903,28 18,28L30,28C31.097,28 32,28.903 32,30C32,31.097 31.097,32 30,32L18,32ZM18,42C16.903,42 16,41.097 16,40C16,38.903 16.903,38 18,38L30,38C31.097,38 32,38.903 32,40C32,41.097 31.097,42 30,42L18,42Z" style="fill:white;fill-rule:nonzero;"/>
        <path d="M44,32C42.903,32 42,31.097 42,30C42,28.903 42.903,28 44,28L46,28C47.097,28 48,28.903 48,30C48,31.097 47.097,32 46,32L44,32ZM44,42C42.903,42 42,41.097 42,40C42,38.903 42.903,38 44,38L46,38C47.097,38 48,38.903 48,40C48,41.097 47.097,42 46,42L44,42Z" style="fill:white;fill-rule:nonzero;"/>
    </g>
</svg>
