<?xml version="1.0" encoding="UTF-8" standalone="no"?>
<!DOCTYPE svg PUBLIC "-//W3C//DTD SVG 1.1//EN" "http://www.w3.org/Graphics/SVG/1.1/DTD/svg11.dtd">
<svg width="100%" height="100%" viewBox="0 0 64 64" version="1.1" xmlns="http://www.w3.org/2000/svg" xmlns:xlink="http://www.w3.org/1999/xlink" xml:space="preserve" xmlns:serif="http://www.serif.com/" style="fill-rule:evenodd;clip-rule:evenodd;stroke-linejoin:round;stroke-miterlimit:2;">
    <path id="icon-design" d="M14.252,33.305L23.121,42.174L21.381,43.914L12.512,35.045L7.909,39.646C7.671,39.884 7.671,40.276 7.909,40.514L20.025,52.63C20.263,52.868 20.655,52.868 20.894,52.63L56.576,16.948C56.814,16.709 56.814,16.317 56.576,16.079L44.463,3.963C44.347,3.847 44.19,3.782 44.027,3.782C43.864,3.782 43.707,3.847 43.591,3.963L38.183,9.371L44.827,16.012L43.084,17.753L36.443,11.111L33.834,13.721L40.475,20.364L38.735,22.105L32.094,15.463L29.482,18.073L38.351,26.944L36.61,28.684L27.742,19.813L22.954,24.601L29.595,31.242L27.855,32.982L21.214,26.341L18.604,28.95L25.246,35.594L23.503,37.334L16.862,30.693L14.252,33.302L14.252,33.305ZM60.049,64L3.335,64C3.335,64 3.335,64 3.335,64C2.322,64 1.489,63.167 1.489,62.154C1.489,61.141 2.322,60.308 3.335,60.308L60.05,60.308C61.062,60.308 61.896,61.141 61.896,62.154C61.896,63.167 61.062,64 60.05,64C60.049,64 60.049,64 60.049,64ZM59.188,13.465C59.996,14.272 60.451,15.369 60.451,16.512C60.451,17.655 59.996,18.752 59.188,19.559L23.505,55.237C22.698,56.045 21.601,56.499 20.459,56.499C19.317,56.499 18.22,56.045 17.413,55.237L5.3,43.126C4.492,42.319 4.038,41.222 4.038,40.08C4.038,38.938 4.492,37.841 5.3,37.034L40.98,1.354C41.787,0.546 42.884,0.092 44.026,0.092C45.168,0.092 46.264,0.546 47.072,1.354L59.188,13.47L59.188,13.465Z" style="fill:rgb(102,102,102);fill-rule:nonzero;"/>
</svg>
