<?xml version="1.0" standalone="no"?><!DOCTYPE svg PUBLIC "-//W3C//DTD SVG 1.1//EN" "http://www.w3.org/Graphics/SVG/1.1/DTD/svg11.dtd"><svg t="1620094957963" class="icon" viewBox="0 0 1024 1024" version="1.1" xmlns="http://www.w3.org/2000/svg" p-id="5156" xmlns:xlink="http://www.w3.org/1999/xlink" width="64" height="64"><defs><style type="text/css"></style></defs><path d="M900.472 670.491L785.466 555.225c-36.704-39.239-95.431-39.239-134.583-2.452l-51.386 49.049c-9.787 9.811-24.469 9.811-34.257 0L420.869 457.126c-4.894-4.905-7.341-9.811-7.341-17.168s2.447-12.262 7.341-17.167l46.492-46.596c19.576-17.168 29.363-41.692 29.363-68.67 0-26.976-9.787-49.049-29.363-68.669L352.355 123.59c-36.704-36.787-100.325-36.787-137.03 0l-44.045 44.144-7.341 7.357a39.71 39.71 0 0 0-4.541 5.445C42.194 316.37 91.533 566.04 274.052 748.969 391.506 866.688 533.429 928 658.223 928c69.598 0 135.062-20.664 183.191-63.848a53.582 53.582 0 0 0 7.672-4.821l51.386-51.502c36.704-36.788 36.704-100.551 0-137.338z m-575.034 26.976C166.386 535.605 119.894 322.24 222.666 219.237l44.045-44.145c9.787-9.81 24.469-9.81 34.258 0l112.56 115.266c4.894 4.905 7.341 9.81 7.341 17.167s-2.447 12.263-7.341 17.168l-46.492 46.596c-19.576 17.167-29.363 41.692-29.363 68.669 0 26.978 9.787 49.05 29.363 68.67l144.37 144.695c36.704 39.24 95.431 39.24 134.583 2.453l51.386-49.05c9.787-9.81 24.469-9.81 34.257 0L846.64 721.992c9.787 9.81 9.787 24.524 0 34.334l-44.044 44.143-0.002 0.001C699.822 903.475 484.49 856.878 325.438 697.467z" p-id="5157" fill="#4275B3"></path></svg>